<mxfile host="app.diagrams.net" agent="Mozilla/5.0 (Windows NT 10.0; Win64; x64) AppleWebKit/537.36 (KHTML, like Gecko) Chrome/132.0.0.0 Safari/537.36" version="26.0.10">
  <diagram name="PÃ¡gina-1" id="KzLhr6WhDuMTuFqagHrq">
    <mxGraphModel dx="1434" dy="746" grid="1" gridSize="10" guides="1" tooltips="1" connect="1" arrows="1" fold="1" page="1" pageScale="1" pageWidth="827" pageHeight="1169" math="0" shadow="0">
      <root>
        <mxCell id="0" />
        <mxCell id="1" parent="0" />
        <mxCell id="bWMmTUcGTRrRct5UcB8n-1" value="Client" style="rounded=0;whiteSpace=wrap;html=1;" vertex="1" parent="1">
          <mxGeometry x="30" y="10" width="100" height="30" as="geometry" />
        </mxCell>
        <mxCell id="bWMmTUcGTRrRct5UcB8n-2" value="" style="endArrow=classic;html=1;rounded=0;" edge="1" parent="1">
          <mxGeometry width="50" height="50" relative="1" as="geometry">
            <mxPoint x="140" y="24.5" as="sourcePoint" />
            <mxPoint x="220" y="24.5" as="targetPoint" />
            <Array as="points">
              <mxPoint x="170" y="24.5" />
            </Array>
          </mxGeometry>
        </mxCell>
        <mxCell id="bWMmTUcGTRrRct5UcB8n-3" value="API Gateway (Ocelot)" style="rounded=0;whiteSpace=wrap;html=1;" vertex="1" parent="1">
          <mxGeometry x="240" y="5" width="220" height="40" as="geometry" />
        </mxCell>
        <mxCell id="bWMmTUcGTRrRct5UcB8n-4" value="" style="endArrow=classic;html=1;rounded=0;" edge="1" parent="1">
          <mxGeometry width="50" height="50" relative="1" as="geometry">
            <mxPoint x="260" y="80" as="sourcePoint" />
            <mxPoint x="300" y="80" as="targetPoint" />
            <Array as="points">
              <mxPoint x="300" y="80" />
            </Array>
          </mxGeometry>
        </mxCell>
        <mxCell id="bWMmTUcGTRrRct5UcB8n-5" value="" style="shape=link;html=1;rounded=0;" edge="1" parent="1">
          <mxGeometry width="100" relative="1" as="geometry">
            <mxPoint x="250" y="60" as="sourcePoint" />
            <mxPoint x="250" y="330" as="targetPoint" />
            <Array as="points">
              <mxPoint x="250" y="190" />
            </Array>
          </mxGeometry>
        </mxCell>
        <mxCell id="bWMmTUcGTRrRct5UcB8n-6" value="" style="endArrow=classic;html=1;rounded=0;" edge="1" parent="1">
          <mxGeometry width="50" height="50" relative="1" as="geometry">
            <mxPoint x="260" y="260" as="sourcePoint" />
            <mxPoint x="300" y="260" as="targetPoint" />
            <Array as="points">
              <mxPoint x="280" y="260" />
              <mxPoint x="300" y="260" />
            </Array>
          </mxGeometry>
        </mxCell>
        <mxCell id="bWMmTUcGTRrRct5UcB8n-7" value="" style="endArrow=classic;html=1;rounded=0;" edge="1" parent="1">
          <mxGeometry width="50" height="50" relative="1" as="geometry">
            <mxPoint x="260" y="140" as="sourcePoint" />
            <mxPoint x="300" y="140" as="targetPoint" />
            <Array as="points">
              <mxPoint x="300" y="140" />
            </Array>
          </mxGeometry>
        </mxCell>
        <mxCell id="bWMmTUcGTRrRct5UcB8n-8" value="" style="endArrow=classic;html=1;rounded=0;" edge="1" parent="1">
          <mxGeometry width="50" height="50" relative="1" as="geometry">
            <mxPoint x="260" y="200" as="sourcePoint" />
            <mxPoint x="300" y="200" as="targetPoint" />
            <Array as="points">
              <mxPoint x="300" y="200" />
            </Array>
          </mxGeometry>
        </mxCell>
        <mxCell id="bWMmTUcGTRrRct5UcB8n-9" value="" style="endArrow=classic;html=1;rounded=0;" edge="1" parent="1">
          <mxGeometry width="50" height="50" relative="1" as="geometry">
            <mxPoint x="260" y="320" as="sourcePoint" />
            <mxPoint x="300" y="320" as="targetPoint" />
            <Array as="points">
              <mxPoint x="300" y="320" />
            </Array>
          </mxGeometry>
        </mxCell>
        <mxCell id="bWMmTUcGTRrRct5UcB8n-10" value="User Service" style="rounded=0;whiteSpace=wrap;html=1;" vertex="1" parent="1">
          <mxGeometry x="320" y="60" width="150" height="40" as="geometry" />
        </mxCell>
        <mxCell id="bWMmTUcGTRrRct5UcB8n-11" value="Product Service" style="rounded=0;whiteSpace=wrap;html=1;" vertex="1" parent="1">
          <mxGeometry x="320" y="120" width="150" height="40" as="geometry" />
        </mxCell>
        <mxCell id="bWMmTUcGTRrRct5UcB8n-12" value="Cart Service" style="rounded=0;whiteSpace=wrap;html=1;" vertex="1" parent="1">
          <mxGeometry x="320" y="180" width="150" height="40" as="geometry" />
        </mxCell>
        <mxCell id="bWMmTUcGTRrRct5UcB8n-13" value="Order Service" style="rounded=0;whiteSpace=wrap;html=1;" vertex="1" parent="1">
          <mxGeometry x="320" y="240" width="150" height="40" as="geometry" />
        </mxCell>
        <mxCell id="bWMmTUcGTRrRct5UcB8n-14" value="Notification Service" style="rounded=0;whiteSpace=wrap;html=1;" vertex="1" parent="1">
          <mxGeometry x="320" y="300" width="150" height="40" as="geometry" />
        </mxCell>
        <mxCell id="bWMmTUcGTRrRct5UcB8n-16" value="" style="endArrow=classic;startArrow=classic;html=1;rounded=0;" edge="1" parent="1">
          <mxGeometry width="50" height="50" relative="1" as="geometry">
            <mxPoint x="490" y="79.5" as="sourcePoint" />
            <mxPoint x="550" y="79.5" as="targetPoint" />
            <Array as="points">
              <mxPoint x="520" y="79.5" />
            </Array>
          </mxGeometry>
        </mxCell>
        <mxCell id="bWMmTUcGTRrRct5UcB8n-17" value="" style="endArrow=classic;startArrow=classic;html=1;rounded=0;" edge="1" parent="1">
          <mxGeometry width="50" height="50" relative="1" as="geometry">
            <mxPoint x="490" y="139.5" as="sourcePoint" />
            <mxPoint x="550" y="139.5" as="targetPoint" />
            <Array as="points">
              <mxPoint x="520" y="139.5" />
            </Array>
          </mxGeometry>
        </mxCell>
        <mxCell id="bWMmTUcGTRrRct5UcB8n-18" value="" style="endArrow=classic;startArrow=classic;html=1;rounded=0;" edge="1" parent="1">
          <mxGeometry width="50" height="50" relative="1" as="geometry">
            <mxPoint x="490" y="199.5" as="sourcePoint" />
            <mxPoint x="550" y="199.5" as="targetPoint" />
            <Array as="points" />
          </mxGeometry>
        </mxCell>
        <mxCell id="bWMmTUcGTRrRct5UcB8n-19" value="" style="endArrow=classic;startArrow=classic;html=1;rounded=0;" edge="1" parent="1">
          <mxGeometry width="50" height="50" relative="1" as="geometry">
            <mxPoint x="490" y="259.5" as="sourcePoint" />
            <mxPoint x="550" y="259.5" as="targetPoint" />
            <Array as="points">
              <mxPoint x="520" y="259.5" />
            </Array>
          </mxGeometry>
        </mxCell>
        <mxCell id="bWMmTUcGTRrRct5UcB8n-20" value="" style="endArrow=classic;startArrow=classic;html=1;rounded=0;" edge="1" parent="1">
          <mxGeometry width="50" height="50" relative="1" as="geometry">
            <mxPoint x="490" y="319.5" as="sourcePoint" />
            <mxPoint x="550" y="319.5" as="targetPoint" />
            <Array as="points">
              <mxPoint x="520" y="319.5" />
            </Array>
          </mxGeometry>
        </mxCell>
        <mxCell id="bWMmTUcGTRrRct5UcB8n-21" value="SQL Server" style="text;html=1;align=center;verticalAlign=middle;whiteSpace=wrap;rounded=0;" vertex="1" parent="1">
          <mxGeometry x="580" y="65" width="90" height="30" as="geometry" />
        </mxCell>
        <mxCell id="bWMmTUcGTRrRct5UcB8n-23" value="MongoDB" style="text;html=1;align=center;verticalAlign=middle;whiteSpace=wrap;rounded=0;" vertex="1" parent="1">
          <mxGeometry x="580" y="125" width="90" height="30" as="geometry" />
        </mxCell>
        <mxCell id="bWMmTUcGTRrRct5UcB8n-24" value="Redis" style="text;html=1;align=center;verticalAlign=middle;whiteSpace=wrap;rounded=0;" vertex="1" parent="1">
          <mxGeometry x="580" y="185" width="90" height="30" as="geometry" />
        </mxCell>
        <mxCell id="bWMmTUcGTRrRct5UcB8n-25" value="SQL Server" style="text;html=1;align=center;verticalAlign=middle;whiteSpace=wrap;rounded=0;" vertex="1" parent="1">
          <mxGeometry x="580" y="245" width="90" height="30" as="geometry" />
        </mxCell>
        <mxCell id="bWMmTUcGTRrRct5UcB8n-26" value="SMTPP/SMS" style="text;html=1;align=center;verticalAlign=middle;whiteSpace=wrap;rounded=0;" vertex="1" parent="1">
          <mxGeometry x="580" y="305" width="90" height="30" as="geometry" />
        </mxCell>
        <mxCell id="bWMmTUcGTRrRct5UcB8n-28" value="Order Service" style="rounded=0;whiteSpace=wrap;html=1;" vertex="1" parent="1">
          <mxGeometry x="30" y="370" width="150" height="40" as="geometry" />
        </mxCell>
        <mxCell id="bWMmTUcGTRrRct5UcB8n-29" value="" style="endArrow=none;html=1;rounded=0;" edge="1" parent="1">
          <mxGeometry width="50" height="50" relative="1" as="geometry">
            <mxPoint x="190" y="389.5" as="sourcePoint" />
            <mxPoint x="220" y="389.5" as="targetPoint" />
          </mxGeometry>
        </mxCell>
        <mxCell id="bWMmTUcGTRrRct5UcB8n-30" value="OrderPlaced event" style="ellipse;whiteSpace=wrap;html=1;" vertex="1" parent="1">
          <mxGeometry x="230" y="365" width="90" height="50" as="geometry" />
        </mxCell>
        <mxCell id="bWMmTUcGTRrRct5UcB8n-31" value="" style="endArrow=classic;html=1;rounded=0;" edge="1" parent="1">
          <mxGeometry width="50" height="50" relative="1" as="geometry">
            <mxPoint x="330" y="389.5" as="sourcePoint" />
            <mxPoint x="370" y="389.5" as="targetPoint" />
            <Array as="points">
              <mxPoint x="370" y="389.5" />
            </Array>
          </mxGeometry>
        </mxCell>
        <mxCell id="bWMmTUcGTRrRct5UcB8n-33" value="RabbitMQ" style="rounded=0;whiteSpace=wrap;html=1;" vertex="1" parent="1">
          <mxGeometry x="380" y="370" width="150" height="40" as="geometry" />
        </mxCell>
        <mxCell id="bWMmTUcGTRrRct5UcB8n-35" value="" style="endArrow=classic;html=1;rounded=0;" edge="1" parent="1">
          <mxGeometry width="50" height="50" relative="1" as="geometry">
            <mxPoint x="540" y="389.5" as="sourcePoint" />
            <mxPoint x="580" y="389.5" as="targetPoint" />
            <Array as="points">
              <mxPoint x="580" y="389.5" />
            </Array>
          </mxGeometry>
        </mxCell>
        <mxCell id="bWMmTUcGTRrRct5UcB8n-36" value="Notification Service" style="rounded=0;whiteSpace=wrap;html=1;" vertex="1" parent="1">
          <mxGeometry x="590" y="370" width="150" height="40" as="geometry" />
        </mxCell>
      </root>
    </mxGraphModel>
  </diagram>
</mxfile>
